<svg xmlns="http://www.w3.org/2000/svg" width="196" height="50" viewBox="0 0 196 50">
  <metadata><?xpacket begin="﻿" id="W5M0MpCehiHzreSzNTczkc9d"?>
<x:xmpmeta xmlns:x="adobe:ns:meta/" x:xmptk="Adobe XMP Core 5.6-c138 79.159824, 2016/09/14-01:09:01        ">
   <rdf:RDF xmlns:rdf="http://www.w3.org/1999/02/22-rdf-syntax-ns#">
      <rdf:Description rdf:about=""/>
   </rdf:RDF>
</x:xmpmeta>
                                                                                                    
                                                                                                    
                                                                                                    
                                                                                                    
                                                                                                    
                                                                                                    
                                                                                                    
                                                                                                    
                                                                                                    
                                                                                                    
                                                                                                    
                                                                                                    
                                                                                                    
                                                                                                    
                                                                                                    
                                                                                                    
                                                                                                    
                                                                                                    
                                                                                                    
                                                                                                    
                           
<?xpacket end="w"?></metadata>
<defs>
    <style>
      .cls-1 {
        fill: #fff;
      }

      .cls-1, .cls-2, .cls-3 {
        fill-rule: evenodd;
      }

      .cls-2 {
        fill: #2cd9a2;
      }

      .cls-3 {
        fill: #062640;
      }
    </style>
  </defs>
  <path id="ICO_Agency" data-name="ICO Agency" class="cls-1" d="M65.482,44h0.962V34.9H65.482V44Zm7.878,0.078a5.028,5.028,0,0,0,1.878-.345,3.932,3.932,0,0,0,1.463-.995l-0.611-.611A3.576,3.576,0,0,1,73.4,43.22a3.953,3.953,0,0,1-1.963-.494,3.609,3.609,0,0,1-1.385-1.352,3.948,3.948,0,0,1,0-3.848,3.61,3.61,0,0,1,1.385-1.352A3.955,3.955,0,0,1,73.4,35.68a3.625,3.625,0,0,1,2.691,1.079l0.611-.611a3.883,3.883,0,0,0-1.456-.988,5.064,5.064,0,0,0-1.872-.338,5.005,5.005,0,0,0-2.444.6,4.367,4.367,0,0,0-1.709,1.657,4.866,4.866,0,0,0,0,4.745,4.376,4.376,0,0,0,1.7,1.657,4.966,4.966,0,0,0,2.438.6h0Zm9.178,0a4.967,4.967,0,0,0,2.438-.6,4.424,4.424,0,0,0,1.709-1.657,4.822,4.822,0,0,0,0-4.745,4.427,4.427,0,0,0-1.709-1.657,5.268,5.268,0,0,0-4.888.006,4.413,4.413,0,0,0-1.716,1.658,4.842,4.842,0,0,0,0,4.732,4.413,4.413,0,0,0,1.716,1.657,5,5,0,0,0,2.451.6h0Zm0-.858a3.959,3.959,0,0,1-1.957-.487A3.56,3.56,0,0,1,79.2,41.381a3.973,3.973,0,0,1,0-3.861,3.561,3.561,0,0,1,1.378-1.352,4.157,4.157,0,0,1,3.906,0,3.531,3.531,0,0,1,1.365,1.352,4.019,4.019,0,0,1,0,3.861,3.529,3.529,0,0,1-1.365,1.352,3.924,3.924,0,0,1-1.95.487h0ZM99.672,44h1.015l-4.161-9.1H95.577L91.417,44h1l1.092-2.431h5.07Zm-5.811-3.211L96.045,35.9l2.184,4.888H93.861Zm13.52-3.627v1.313a2.835,2.835,0,0,0-1.131-1.014,3.47,3.47,0,0,0-1.573-.351,3.671,3.671,0,0,0-1.755.416,3.1,3.1,0,0,0-1.229,1.17,3.292,3.292,0,0,0-.448,1.716,3.326,3.326,0,0,0,.448,1.723,3.121,3.121,0,0,0,1.235,1.183,3.634,3.634,0,0,0,1.749.422,3.475,3.475,0,0,0,1.54-.338,2.78,2.78,0,0,0,1.125-.988v0.871a2.546,2.546,0,0,1-.611,1.879,2.629,2.629,0,0,1-1.911.6,4.5,4.5,0,0,1-1.489-.247,3.513,3.513,0,0,1-1.2-.689l-0.468.7a3.7,3.7,0,0,0,1.384.773,5.741,5.741,0,0,0,1.8.28,3.522,3.522,0,0,0,2.567-.839,3.48,3.48,0,0,0,.852-2.581V37.162h-0.884Zm-2.613,5.759a2.764,2.764,0,0,1-1.333-.319,2.312,2.312,0,0,1-.923-0.89,2.718,2.718,0,0,1,0-2.6,2.27,2.27,0,0,1,.923-0.884,3,3,0,0,1,2.678.006,2.328,2.328,0,0,1,.923.884,2.51,2.51,0,0,1,.332,1.294,2.545,2.545,0,0,1-.332,1.3,2.3,2.3,0,0,1-.929.89,2.8,2.8,0,0,1-1.339.319h0Zm12.05-2.34a3.7,3.7,0,0,0-.429-1.8,3.131,3.131,0,0,0-1.183-1.229,3.3,3.3,0,0,0-1.7-.442,3.341,3.341,0,0,0-1.709.442,3.153,3.153,0,0,0-1.2,1.235,3.658,3.658,0,0,0-.436,1.794,3.542,3.542,0,0,0,.455,1.794,3.237,3.237,0,0,0,1.268,1.242,3.793,3.793,0,0,0,1.865.448,3.849,3.849,0,0,0,1.5-.286,2.922,2.922,0,0,0,1.137-.832l-0.52-.6a2.548,2.548,0,0,1-.923.67,2.947,2.947,0,0,1-1.17.227,2.718,2.718,0,0,1-1.872-.657,2.444,2.444,0,0,1-.819-1.723h5.72ZM113.5,37.9a2.342,2.342,0,0,1,1.671.63,2.475,2.475,0,0,1,.76,1.645h-4.849a2.476,2.476,0,0,1,.761-1.645,2.325,2.325,0,0,1,1.657-.63h0Zm8.684-.793a3.35,3.35,0,0,0-1.553.345,2.569,2.569,0,0,0-1.047.968V37.162H118.7V44h0.923V40.412a2.48,2.48,0,0,1,.644-1.813,2.337,2.337,0,0,1,1.748-.657,2,2,0,0,1,1.521.559,2.264,2.264,0,0,1,.533,1.625V44H125V40.035a2.92,2.92,0,0,0-.76-2.177,2.8,2.8,0,0,0-2.048-.748h0Zm8.177,6.955a3.521,3.521,0,0,0,1.573-.344,2.615,2.615,0,0,0,1.1-1.008l-0.689-.468A2.1,2.1,0,0,1,131.5,43a2.6,2.6,0,0,1-1.131.247,2.675,2.675,0,0,1-1.332-.332,2.336,2.336,0,0,1-.923-0.936,3.094,3.094,0,0,1,0-2.788,2.325,2.325,0,0,1,.923-0.942,2.675,2.675,0,0,1,1.332-.332,2.548,2.548,0,0,1,1.131.254,2.151,2.151,0,0,1,.858.761l0.689-.468a2.628,2.628,0,0,0-1.1-1.008,3.518,3.518,0,0,0-1.58-.345,3.685,3.685,0,0,0-1.813.442,3.212,3.212,0,0,0-1.255,1.235,3.777,3.777,0,0,0,0,3.595,3.2,3.2,0,0,0,1.255,1.241,3.683,3.683,0,0,0,1.813.442h0Zm9.217-6.9-2.574,5.811-2.574-5.811h-0.962l3.055,6.825-0.3.663a2.365,2.365,0,0,1-.617.884,1.258,1.258,0,0,1-.8.26,1.7,1.7,0,0,1-1.248-.52l-0.429.689a2,2,0,0,0,.741.468,2.682,2.682,0,0,0,.923.156,2.151,2.151,0,0,0,1.313-.4,3.265,3.265,0,0,0,.962-1.365l3.419-7.657h-0.91Z"/>
  <path id="Crypterio" class="cls-1" d="M74.36,26.36a10.625,10.625,0,0,0,8.61-3.57l-2.94-3.15c-1.65,1.5-3.12,2.46-5.52,2.46-3.6,0-6.09-3-6.09-6.6,0-3.66,2.55-6.6,6.09-6.6a7.269,7.269,0,0,1,5.4,2.34l2.76-3.18A11.077,11.077,0,0,0,63.59,15.5,10.614,10.614,0,0,0,74.36,26.36ZM84.98,26h4.56V20.06c0-3.84,1.86-5.67,4.89-5.67h0.24V9.621c-2.7-.12-4.2,1.32-5.13,3.54V9.921H84.98V26Zm15.179,4.89c2.73,0,4.05-1.23,5.28-4.5l6.18-16.469h-4.74l-3.51,10.95L99.71,9.921H94.88l6.3,16.139a1.523,1.523,0,0,1-1.59,1.05,4.144,4.144,0,0,1-1.95-.63l-1.53,3.3A7.549,7.549,0,0,0,100.159,30.89Zm12.96-.09h4.56V23.9a6.175,6.175,0,0,0,5.01,2.4c3.81,0,7.32-2.94,7.32-8.31,0-5.43-3.57-8.37-7.32-8.37a5.905,5.905,0,0,0-5.01,2.61V9.921h-4.56V30.8Zm8.4-8.37c-2.13,0-3.9-1.77-3.9-4.44,0-2.73,1.77-4.5,3.9-4.5s3.93,1.77,3.93,4.44C125.449,20.69,123.649,22.43,121.519,22.43Zm16.08,3.84a6.723,6.723,0,0,0,3.6-.93V21.68a4.638,4.638,0,0,1-2.25.57,1.321,1.321,0,0,1-1.47-1.56v-6.87h3.78v-3.9h-3.78V5.811h-4.56v4.11H131v3.9h1.92v7.62C132.919,25.16,134.809,26.27,137.6,26.27Zm12.99,0.09a8.042,8.042,0,0,0,6.569-3l-2.61-2.31a5.269,5.269,0,0,1-3.9,1.65,3.729,3.729,0,0,1-3.929-3.15h11.189c0.03-.42.06-0.84,0.06-1.2,0-4.56-2.46-8.73-7.829-8.73-4.68,0-7.95,3.78-7.95,8.37A8.057,8.057,0,0,0,150.589,26.36Zm-3.93-9.66c0.36-2.07,1.59-3.42,3.48-3.42,1.919,0,3.119,1.38,3.389,3.42h-6.869Zm13.5,9.3h4.559V20.06c0-3.84,1.86-5.67,4.89-5.67h0.24V9.621c-2.7-.12-4.2,1.32-5.13,3.54V9.921h-4.559V26Zm11.43-17.849h4.8V4.1h-4.8v4.05ZM171.709,26h4.559V9.921h-4.559V26Zm15.539,0.36a8.376,8.376,0,1,0-8.67-8.37A8.439,8.439,0,0,0,187.248,26.36Zm0.06-3.93a4.272,4.272,0,0,1-4.23-4.44,4.137,4.137,0,0,1,4.17-4.44,4.272,4.272,0,0,1,4.23,4.44A4.137,4.137,0,0,1,187.308,22.43Z"/>
  <path class="cls-2" d="M25,0A25,25,0,1,1,0,25,25,25,0,0,1,25,0Zm0,4A21,21,0,1,1,4,25,21,21,0,0,1,25,4Zm0,2A19,19,0,1,1,6,25,19,19,0,0,1,25,6Z"/>
  <path id="C" class="cls-3" d="M29.225,19.5a5.108,5.108,0,0,0-3.463-1.427,4.674,4.674,0,0,0-2.545.749,5.13,5.13,0,0,0-1.879,2.2,6.628,6.628,0,0,0-.382,1.056h2.089V24.04H20.663c-0.005.133-.018,0.261-0.018,0.4A9.96,9.96,0,0,0,20.771,26h2.274v1.957h-1.7a7.809,7.809,0,0,0,.892,1.609,4.954,4.954,0,0,0,4.171,2.148,5.948,5.948,0,0,0,3.154-.929,10.976,10.976,0,0,0,3.267-3.09L35,29.287a16.087,16.087,0,0,1-3.867,3.977A10.936,10.936,0,0,1,25.11,35a9.586,9.586,0,0,1-8.56-4.974,10.2,10.2,0,0,1-.867-2.067H13.474L12.649,26h2.638a11.063,11.063,0,0,1-.068-1.117c0-.286.029-0.562,0.05-0.84H11.824L11,22.084h4.593a9.73,9.73,0,0,1,.923-2.254,9.305,9.305,0,0,1,3.53-3.554A9.88,9.88,0,0,1,25.025,15a9.93,9.93,0,0,1,4.89,1.164l0.462-.831h1.989l1.919,6.942-2.608.748A12.993,12.993,0,0,0,29.225,19.5Z"/>
</svg>
